<svg width="92" height="102" viewBox="0 0 92 102" fill="none" xmlns="http://www.w3.org/2000/svg">
<circle cx="45.5" cy="51.5" r="39.5" fill="#D9D9D9"/>
<path d="M50.1895 40.9424V70H41.7837V40.9424H50.1895ZM41.2734 33.4229C41.2734 32.2054 41.7031 31.2118 42.5625 30.4419C43.4219 29.6541 44.5498 29.2603 45.9463 29.2603C47.3428 29.2603 48.4707 29.6541 49.3301 30.4419C50.2074 31.2118 50.646 32.2054 50.646 33.4229C50.646 34.6224 50.2074 35.616 49.3301 36.4038C48.4707 37.1737 47.3428 37.5586 45.9463 37.5586C44.5498 37.5586 43.4219 37.1737 42.5625 36.4038C41.7031 35.616 41.2734 34.6224 41.2734 33.4229Z" fill="#595959"/>
</svg>
