<svg width="32" height="27" viewBox="0 0 32 27" fill="none" xmlns="http://www.w3.org/2000/svg">
<path d="M31.9373 3.20982C30.7393 3.75633 29.4701 4.11707 28.1707 4.28045C29.5388 3.42843 30.5632 2.09228 31.0547 0.518743C29.7867 1.28545 28.3813 1.84356 26.8853 2.15439C25.8983 1.06087 24.5905 0.335592 23.1649 0.0911851C21.7392 -0.153222 20.2756 0.0969167 19.0012 0.802758C17.7269 1.5086 16.7131 2.63064 16.1174 3.99465C15.5217 5.35867 15.3773 6.88831 15.7067 8.34607C10.2533 8.07945 5.42267 5.36489 2.18667 1.26473C1.59839 2.30056 1.29155 3.482 1.29867 4.68383C1.29867 7.04612 2.45867 9.12244 4.216 10.3423C3.17448 10.3079 2.15596 10.0162 1.24533 9.49129V9.57418C1.24474 11.1441 1.76836 12.6658 2.72734 13.8812C3.68633 15.0967 5.02162 15.9309 6.50667 16.2425C5.5444 16.5096 4.53655 16.5497 3.55733 16.3599C3.97883 17.711 4.79688 18.892 5.89735 19.7382C6.99782 20.5845 8.3258 21.0536 9.696 21.0803C7.37537 22.9673 4.50997 23.9915 1.56 23.9883C1.04 23.9883 0.521333 23.9565 0 23.8957C3.00761 25.891 6.50468 26.9501 10.076 26.9474C22.1467 26.9474 28.74 16.592 28.74 7.62771C28.74 7.33761 28.74 7.0475 28.72 6.75739C30.008 5.79709 31.119 4.60484 32 3.23745L31.9373 3.20982Z" fill="#1DA1F2"/>
</svg>
